<svg xmlns="http://www.w3.org/2000/svg" width="35" height="28.721" viewBox="0 0 35 28.721">
  <g id="Group_431" data-name="Group 431" transform="translate(-1.655 -5.279)">
    <rect id="Rectangle_205" data-name="Rectangle 205" width="35" height="28.721" rx="2" transform="translate(1.655 5.279)" fill="rgba(255,35,35,0.24)" opacity="0.8"/>
    <g id="disLike" transform="translate(1.655 16.001)">
      <path id="Path_82" data-name="Path 82" d="M38.191,30.409a8,8,0,1,0,8,8A8,8,0,0,0,38.191,30.409Zm-3.743,6.583a1.027,1.027,0,1,1,1.027,1.027A1.027,1.027,0,0,1,34.448,36.992Zm5.812,5.779a.417.417,0,0,1-.417-.417c0-.512-.772-.962-1.651-.962s-1.651.449-1.651.962a.417.417,0,0,1-.834,0c0-1.007,1.091-1.8,2.485-1.8s2.486.789,2.486,1.8a.417.417,0,0,1-.417.417Zm.648-4.751a1.027,1.027,0,1,1,1.027-1.027,1.027,1.027,0,0,1-1.027,1.027Z" transform="translate(-29.191 -30.409)" fill="#e82e5f"/>
    </g>
    <path id="Path_107" data-name="Path 107" d="M8.5,0,17,15,8.5,8.349,0,15Z" transform="translate(17.655 17)" fill="#e02020"/>
  </g>
</svg>
