<?xml version="1.0" ?><svg viewBox="0 0 60 60" xmlns="http://www.w3.org/2000/svg"><defs><style>.a{fill:none;stroke:#1c4db8;stroke-linecap:round;stroke-linejoin:round;stroke-width:1.5px;}.b{fill:#1c4db8;}.c{fill:#e82e5f;}</style></defs><title/><circle class="a" cx="15.13" cy="15.211" r="13.63"/><path class="a" d="M18.848,19.823c0,1.369-1.665,2.478-3.718,2.478s-3.717-1.109-3.717-2.478"/><line class="a" x1="58.5" x2="2.12" y1="1.58" y2="57.961"/><circle class="b" cx="10.248" cy="12.664" r="1.847"/><circle class="b" cx="20.012" cy="12.664" r="1.847"/><path class="c" d="M44.572,30.409a14.381,14.381,0,1,0,14.381,14.38A14.4,14.4,0,0,0,44.572,30.409ZM37.843,42.242a1.847,1.847,0,1,1,1.847,1.847A1.847,1.847,0,0,1,37.843,42.242ZM48.29,52.63a.75.75,0,0,1-.75-.75c0-.921-1.387-1.729-2.968-1.729s-2.967.808-2.967,1.729a.75.75,0,0,1-1.5,0c0-1.811,1.962-3.229,4.467-3.229s4.468,1.418,4.468,3.229A.75.75,0,0,1,48.29,52.63Zm1.164-8.541A1.847,1.847,0,1,1,51.3,42.242,1.847,1.847,0,0,1,49.454,44.089Z"/></svg>