<svg xmlns="http://www.w3.org/2000/svg" width="22" height="20.875" viewBox="0 0 22 20.875">
  <g id="dislike" opacity="0.86">
    <path id="Path_73" data-name="Path 73" d="M141.96,68.875a2.414,2.414,0,0,1-.721-.11,2.28,2.28,0,0,1-1.633-2.235,5.108,5.108,0,0,0-.541-2.476,4.349,4.349,0,0,0-2.231-1.93.827.827,0,1,1,.645-1.524,5.943,5.943,0,0,1,3.777,5.943.676.676,0,0,0,1.229.385,4.942,4.942,0,0,0,.177-4.847.825.825,0,0,1,.722-1.225h7.794a.782.782,0,0,0,0-1.564h-1.125a.825.825,0,0,1,0-1.651.782.782,0,0,0,0-1.564h-1.125a.825.825,0,1,1,0-1.651.782.782,0,1,0,0-1.564H147.8a.825.825,0,0,1,0-1.651.782.782,0,1,0,0-1.564h-4.768a6.146,6.146,0,0,0-2.15.385l-3.714,1.379a.825.825,0,0,1-.575-1.542l3.714-1.379A7.786,7.786,0,0,1,143.034,48H147.8a2.435,2.435,0,0,1,2.2,3.466,2.436,2.436,0,0,1,1.125,3.215,2.436,2.436,0,0,1,1.125,3.214,2.433,2.433,0,0,1-1.078,4.613h-6.583a6.224,6.224,0,0,1-.742,5.349A2.267,2.267,0,0,1,141.96,68.875Z" transform="translate(-131.607 -48)" fill="#fff"/>
    <path id="Path_74" data-name="Path 74" d="M59.68,83.176H54.955a.825.825,0,0,1-.825-.825V71.035a.825.825,0,0,1,.825-.825H59.68a.825.825,0,0,1,.825.825V82.35A.825.825,0,0,1,59.68,83.176Zm-3.9-1.651h3.073V71.861H55.781Z" transform="translate(-54.13 -68.988)" fill="#fff"/>
  </g>
</svg>
