<svg xmlns="http://www.w3.org/2000/svg" width="22" height="20.88" viewBox="0 0 22 20.88">
  <g id="_1" data-name="1" transform="translate(22 20.88) rotate(180)" opacity="0.86">
    <path id="Path_73" data-name="Path 73" d="M11.647,20.88a2.413,2.413,0,0,0,.721-.11A2.28,2.28,0,0,0,14,18.534a5.11,5.11,0,0,1,.541-2.477,4.349,4.349,0,0,1,2.231-1.931.827.827,0,0,0-.645-1.524,5.945,5.945,0,0,0-3.777,5.944.676.676,0,0,1-1.229.385,4.944,4.944,0,0,1-.177-4.848.826.826,0,0,0-.722-1.226H2.43a.783.783,0,0,1,0-1.565H3.556a.826.826,0,0,0,0-1.651.782.782,0,0,1,0-1.564H4.68a.826.826,0,0,0,0-1.651.782.782,0,0,1,0-1.564H5.805a.826.826,0,0,0,0-1.651.782.782,0,0,1,0-1.564h4.768a6.144,6.144,0,0,1,2.15.385l3.714,1.38a.826.826,0,0,0,.575-1.542L13.3.491A7.784,7.784,0,0,0,10.573,0H5.805A2.435,2.435,0,0,0,3.6,3.467,2.437,2.437,0,0,0,2.479,6.683,2.437,2.437,0,0,0,1.355,9.9a2.433,2.433,0,0,0,1.078,4.614H9.016a6.227,6.227,0,0,0,.742,5.351A2.267,2.267,0,0,0,11.647,20.88Z" transform="translate(0 0)" fill="#fff"/>
    <path id="Path_74" data-name="Path 74" d="M.825,12.969H5.55a.825.825,0,0,0,.825-.826V.826A.825.825,0,0,0,5.55,0H.825A.825.825,0,0,0,0,.826V12.143a.825.825,0,0,0,.825.826Zm3.9-1.651H1.651V1.651H4.725Z" transform="translate(15.624 1.222)" fill="#fff"/>
  </g>
</svg>
