<svg id="shareIcon" xmlns="http://www.w3.org/2000/svg" width="25" height="25" viewBox="0 0 25 25">
  <path id="Fill-61" d="M-267.977-347.454a4.1,4.1,0,0,1-4.123-4.123,4.1,4.1,0,0,1,4.123-4.123,4.1,4.1,0,0,1,4.123,4.123,4.132,4.132,0,0,1-4.123,4.123Zm0-6.733a2.562,2.562,0,0,0-2.557,2.557,2.562,2.562,0,0,0,2.557,2.557,2.562,2.562,0,0,0,2.557-2.557,2.6,2.6,0,0,0-2.557-2.557Z" transform="translate(272.1 364.103)" fill="#134563"/>
  <path id="Fill-62" d="M-235.877-363.554A4.1,4.1,0,0,1-240-367.677a4.1,4.1,0,0,1,4.123-4.123,4.1,4.1,0,0,1,4.123,4.123,4.132,4.132,0,0,1-4.123,4.123Zm0-6.681a2.562,2.562,0,0,0-2.557,2.557,2.562,2.562,0,0,0,2.557,2.557,2.562,2.562,0,0,0,2.557-2.557,2.562,2.562,0,0,0-2.557-2.557Z" transform="translate(256.754 371.8)" fill="#134563"/>
  <path id="Fill-63" d="M-235.877-331.454A4.1,4.1,0,0,1-240-335.577a4.1,4.1,0,0,1,4.123-4.123,4.1,4.1,0,0,1,4.123,4.123,4.132,4.132,0,0,1-4.123,4.123Zm0-6.681a2.562,2.562,0,0,0-2.557,2.557,2.562,2.562,0,0,0,2.557,2.557,2.562,2.562,0,0,0,2.557-2.557,2.562,2.562,0,0,0-2.557-2.557Z" transform="translate(256.754 356.454)" fill="#134563"/>
  <path id="Fill-64" d="M-248.448-339.511l-10.752-5.376.731-1.514,10.8,5.376-.783,1.514" transform="translate(265.933 359.657)" fill="#134563"/>
  <path id="Fill-65" d="M-258.469-355.563l-.731-1.461,10.752-5.376.783,1.461-10.8,5.376" transform="translate(265.933 367.306)" fill="#134563"/>
</svg>
