<svg xmlns="http://www.w3.org/2000/svg" width="30" height="19.415" viewBox="0 0 30 19.415">
  <g id="Icon-Eye" transform="translate(269.95 467.6)">
    <path id="Fill-174" d="M-254.95-448.185c-10.146,0-14.718-8.956-14.906-9.332a.8.8,0,0,1,0-.752c.188-.376,4.76-9.332,14.906-9.332s14.718,8.956,14.906,9.332a.8.8,0,0,1,0,.752c-.188.438-4.76,9.332-14.906,9.332Zm-13.215-9.645c.939,1.628,5.261,8.017,13.215,8.017s12.276-6.388,13.215-8.017c-.939-1.628-5.261-8.017-13.215-8.017s-12.276,6.388-13.215,8.017Z" fill="#134563"/>
    <path id="Fill-175" d="M-250.709-448.817a7.9,7.9,0,0,1-7.891-7.891,7.939,7.939,0,0,1,7.891-7.891,7.939,7.939,0,0,1,7.891,7.891,7.9,7.9,0,0,1-7.891,7.891Zm0-14.154a6.281,6.281,0,0,0-6.263,6.263,6.281,6.281,0,0,0,6.263,6.263,6.281,6.281,0,0,0,6.263-6.263,6.281,6.281,0,0,0-6.263-6.263Z" transform="translate(-4.241 -1.121)" fill="#134563"/>
    <path id="Fill-176" d="M-248.616-450.194A4.4,4.4,0,0,1-253-454.578a.829.829,0,0,1,.814-.814.829.829,0,0,1,.814.814,2.673,2.673,0,0,0,2.693,2.693,2.673,2.673,0,0,0,2.693-2.693,2.673,2.673,0,0,0-2.693-2.693.829.829,0,0,1-.814-.814.829.829,0,0,1,.814-.814,4.4,4.4,0,0,1,4.384,4.384,4.29,4.29,0,0,1-4.322,4.321" transform="translate(-6.334 -3.251)" fill="#134563"/>
  </g>
</svg>
